<svg width="512" height="512" viewBox="0 0 512 512" fill="none" xmlns="http://www.w3.org/2000/svg">
  <defs>
    <linearGradient id="bg" x1="64" y1="48" x2="448" y2="464" gradientUnits="userSpaceOnUse">
      <stop stop-color="#6D5EF8"/>
      <stop offset="1" stop-color="#1FA2FF"/>
    </linearGradient>
    <linearGradient id="play" x1="180" y1="150" x2="292" y2="328" gradientUnits="userSpaceOnUse">
      <stop stop-color="#FFFFFF"/>
      <stop offset="1" stop-color="#DDF4FF"/>
    </linearGradient>
  </defs>
  <rect x="48" y="48" width="416" height="416" rx="108" fill="url(#bg)"/>
  <rect x="88" y="344" width="336" height="18" rx="9" fill="#FFFFFF" fill-opacity="0.92"/>
  <rect x="88" y="382" width="220" height="18" rx="9" fill="#FFFFFF" fill-opacity="0.78"/>
  <rect x="340" y="382" width="84" height="18" rx="9" fill="#FFFFFF" fill-opacity="0.5"/>
  <path d="M214 154.2C214 144.584 224.561 138.748 232.688 143.835L322.262 199.892C329.93 204.691 329.93 215.854 322.262 220.653L232.688 276.71C224.561 281.797 214 275.961 214 266.345V154.2Z" fill="url(#play)"/>
  <path d="M146 112C131.641 112 120 123.641 120 138V286C120 300.359 131.641 312 146 312H366C380.359 312 392 300.359 392 286V190.5C392 184.701 387.299 180 381.5 180C375.701 180 371 184.701 371 190.5V286C371 288.761 368.761 291 366 291H146C143.239 291 141 288.761 141 286V138C141 135.239 143.239 133 146 133H280.5C286.299 133 291 128.299 291 122.5C291 116.701 286.299 112 280.5 112H146Z" fill="#FFFFFF" fill-opacity="0.92"/>
  <path d="M328 109C328 96.2975 338.297 86 351 86H391C403.703 86 414 96.2975 414 109V149C414 161.703 403.703 172 391 172H351C338.297 172 328 161.703 328 149V109Z" fill="#0C1633" fill-opacity="0.18"/>
  <path d="M351.642 129.236C350.251 127.764 350.317 125.444 351.789 124.053C353.261 122.662 355.58 122.728 356.971 124.2L368.337 136.228L385.223 117.77C386.594 116.271 388.916 116.168 390.415 117.539C391.915 118.91 392.018 121.231 390.647 122.731L371.098 144.095C370.43 144.825 369.495 145.252 368.505 145.275C367.516 145.298 366.562 144.913 365.861 144.215L351.642 129.236Z" fill="#FFFFFF"/>
</svg>
